<svg data-v-fde0c5aa="" xmlns="http://www.w3.org/2000/svg" viewBox="0 0 300 300" class="font"><!----><defs data-v-fde0c5aa=""><!----></defs><rect data-v-fde0c5aa="" fill="#111F51" x="0" y="0" width="300px" height="300px" class="logo-background-square"></rect><defs data-v-fde0c5aa=""><!----></defs><g data-v-fde0c5aa="" id="990c4bd7-d305-4a02-8707-fd3a16a2d526" fill="#19CEDA" transform="matrix(2.9290373879943745,0,0,2.9290373879943745,39.20915987381634,112.06896638414239)"><path d="M4.90 17.92L4.90 17.92L4.90 17.92Q5.13 17.92 5.27 17.85L5.27 17.85L5.27 17.85Q5.41 17.77 5.48 17.64L5.48 17.64L5.48 17.64Q5.56 17.51 5.58 17.31L5.58 17.31L5.58 17.31Q5.61 17.12 5.61 16.87L5.61 16.87L5.61 16.87Q5.61 16.66 5.60 16.33L5.60 16.33L5.60 16.33Q5.59 16.00 5.58 15.69L5.58 15.69L5.58 15.69Q5.57 15.32 5.56 14.92L5.56 14.92L5.56 14.92Q5.47 14.91 5.38 14.90L5.38 14.90L5.38 14.90Q5.30 14.89 5.22 14.89L5.22 14.89L5.22 14.89Q4.87 14.89 4.63 15.03L4.63 15.03L4.63 15.03Q4.40 15.17 4.25 15.42L4.25 15.42L4.25 15.42Q4.11 15.67 4.05 16.01L4.05 16.01L4.05 16.01Q3.99 16.34 3.99 16.74L3.99 16.74L3.99 16.74Q3.99 16.98 4.02 17.20L4.02 17.20L4.02 17.20Q4.05 17.41 4.14 17.57L4.14 17.57L4.14 17.57Q4.24 17.73 4.42 17.82L4.42 17.82L4.42 17.82Q4.60 17.92 4.90 17.92ZM8.20 19.32L8.20 19.32L8.20 19.32Q7.85 19.32 7.50 19.28L7.50 19.28L7.50 19.28Q7.16 19.24 6.85 19.13L6.85 19.13L6.85 19.13Q6.54 19.01 6.28 18.79L6.28 18.79L6.28 18.79Q6.02 18.57 5.83 18.21L5.83 18.21L5.83 18.21Q5.69 18.53 5.39 18.77L5.39 18.77L5.39 18.77Q5.09 19.01 4.70 19.17L4.70 19.17L4.70 19.17Q4.31 19.33 3.89 19.41L3.89 19.41L3.89 19.41Q3.46 19.49 3.07 19.49L3.07 19.49L3.07 19.49Q2.38 19.49 1.86 19.33L1.86 19.33L1.86 19.33Q1.34 19.16 0.98 18.86L0.98 18.86L0.98 18.86Q0.63 18.55 0.45 18.13L0.45 18.13L0.45 18.13Q0.27 17.71 0.27 17.18L0.27 17.18L0.27 17.18Q0.27 16.56 0.48 16.00L0.48 16.00L0.48 16.00Q0.69 15.44 1.19 15.03L1.19 15.03L1.19 15.03Q1.70 14.61 2.54 14.37L2.54 14.37L2.54 14.37Q3.38 14.12 4.64 14.12L4.64 14.12L5.58 14.12L5.58 14.12Q5.58 13.36 5.53 12.87L5.53 12.87L5.53 12.87Q5.48 12.37 5.37 12.07L5.37 12.07L5.37 12.07Q5.26 11.78 5.09 11.66L5.09 11.66L5.09 11.66Q4.93 11.55 4.70 11.55L4.70 11.55L4.70 11.55Q4.44 11.55 4.26 11.70L4.26 11.70L4.26 11.70Q4.09 11.86 3.98 12.16L3.98 12.16L3.98 12.16Q3.88 12.46 3.83 12.88L3.83 12.88L3.83 12.88Q3.79 13.30 3.79 13.83L3.79 13.83L3.79 13.83Q3.49 13.83 3.17 13.82L3.17 13.82L3.17 13.82Q2.84 13.81 2.53 13.77L2.53 13.77L2.53 13.77Q2.21 13.73 1.92 13.64L1.92 13.64L1.92 13.64Q1.64 13.56 1.42 13.41L1.42 13.41L1.42 13.41Q1.20 13.26 1.07 13.04L1.07 13.04L1.07 13.04Q0.94 12.81 0.94 12.49L0.94 12.49L0.94 12.49Q0.94 12.04 1.18 11.63L1.18 11.63L1.18 11.63Q1.42 11.23 1.90 10.93L1.90 10.93L1.90 10.93Q2.39 10.62 3.14 10.44L3.14 10.44L3.14 10.44Q3.90 10.26 4.94 10.26L4.94 10.26L4.94 10.26Q6.15 10.26 7.02 10.51L7.02 10.51L7.02 10.51Q7.90 10.75 8.46 11.25L8.46 11.25L8.46 11.25Q9.02 11.74 9.29 12.49L9.29 12.49L9.29 12.49Q9.56 13.23 9.56 14.24L9.56 14.24L9.56 16.66L9.56 16.66Q9.56 16.95 9.64 17.12L9.64 17.12L9.64 17.12Q9.72 17.28 9.83 17.37L9.83 17.37L9.83 17.37Q9.95 17.45 10.08 17.49L10.08 17.49L10.08 17.49Q10.22 17.52 10.33 17.56L10.33 17.56L10.33 17.56Q10.45 17.60 10.52 17.66L10.52 17.66L10.52 17.66Q10.60 17.73 10.60 17.88L10.60 17.88L10.60 17.88Q10.60 18.56 9.99 18.94L9.99 18.94L9.99 18.94Q9.38 19.32 8.20 19.32ZM12.03 8.11L12.03 8.11L12.03 8.11Q12.03 7.77 12.15 7.51L12.15 7.51L12.15 7.51Q12.27 7.25 12.46 7.06L12.46 7.06L12.46 7.06Q12.65 6.88 12.89 6.75L12.89 6.75L12.89 6.75Q13.13 6.62 13.38 6.55L13.38 6.55L13.38 6.55Q13.62 6.47 13.85 6.44L13.85 6.44L13.85 6.44Q14.08 6.41 14.25 6.41L14.25 6.41L14.25 6.41Q14.44 6.41 14.67 6.44L14.67 6.44L14.67 6.44Q14.91 6.47 15.16 6.55L15.16 6.55L15.16 6.55Q15.40 6.62 15.64 6.75L15.64 6.75L15.64 6.75Q15.88 6.88 16.07 7.06L16.07 7.06L16.07 7.06Q16.26 7.25 16.37 7.51L16.37 7.51L16.37 7.51Q16.48 7.77 16.48 8.11L16.48 8.11L16.48 8.11Q16.48 8.44 16.37 8.70L16.37 8.70L16.37 8.70Q16.26 8.96 16.07 9.15L16.07 9.15L16.07 9.15Q15.88 9.33 15.64 9.46L15.64 9.46L15.64 9.46Q15.40 9.58 15.16 9.66L15.16 9.66L15.16 9.66Q14.91 9.73 14.67 9.77L14.67 9.77L14.67 9.77Q14.44 9.80 14.25 9.80L14.25 9.80L14.25 9.80Q14.08 9.80 13.85 9.77L13.85 9.77L13.85 9.77Q13.62 9.73 13.38 9.66L13.38 9.66L13.38 9.66Q13.13 9.58 12.89 9.46L12.89 9.46L12.89 9.46Q12.65 9.33 12.46 9.15L12.46 9.15L12.46 9.15Q12.27 8.96 12.15 8.71L12.15 8.71L12.15 8.71Q12.03 8.45 12.03 8.11ZM16.27 12.05L16.27 16.71L16.27 16.71Q16.27 16.99 16.34 17.14L16.34 17.14L16.34 17.14Q16.42 17.29 16.53 17.37L16.53 17.37L16.53 17.37Q16.65 17.45 16.78 17.47L16.78 17.47L16.78 17.47Q16.91 17.50 17.02 17.53L17.02 17.53L17.02 17.53Q17.13 17.57 17.21 17.63L17.21 17.63L17.21 17.63Q17.28 17.70 17.28 17.85L17.28 17.85L17.28 17.85Q17.28 18.63 16.47 18.97L16.47 18.97L16.47 18.97Q15.67 19.32 14.14 19.32L14.14 19.32L14.14 19.32Q13.41 19.32 12.84 19.24L12.84 19.24L12.84 19.24Q12.27 19.15 11.88 18.97L11.88 18.97L11.88 18.97Q11.49 18.79 11.29 18.52L11.29 18.52L11.29 18.52Q11.09 18.24 11.09 17.85L11.09 17.85L11.09 17.85Q11.09 17.70 11.16 17.63L11.16 17.63L11.16 17.63Q11.24 17.57 11.35 17.53L11.35 17.53L11.35 17.53Q11.46 17.50 11.59 17.47L11.59 17.47L11.59 17.47Q11.72 17.45 11.83 17.37L11.83 17.37L11.83 17.37Q11.94 17.29 12.01 17.14L12.01 17.14L12.01 17.14Q12.09 16.99 12.09 16.71L12.09 16.71L12.09 13.06L12.09 13.06Q12.09 12.79 12.01 12.64L12.01 12.64L12.01 12.64Q11.94 12.49 11.83 12.41L11.83 12.41L11.83 12.41Q11.72 12.33 11.59 12.30L11.59 12.30L11.59 12.30Q11.46 12.28 11.35 12.24L11.35 12.24L11.35 12.24Q11.24 12.21 11.16 12.14L11.16 12.14L11.16 12.14Q11.09 12.08 11.09 11.93L11.09 11.93L11.09 11.93Q11.09 11.54 11.29 11.26L11.29 11.26L11.29 11.26Q11.49 10.99 11.88 10.80L11.88 10.80L11.88 10.80Q12.27 10.62 12.84 10.54L12.84 10.54L12.84 10.54Q13.41 10.46 14.14 10.46L14.14 10.46L14.14 10.46Q14.88 10.46 15.31 10.53L15.31 10.53L15.31 10.53Q15.73 10.61 15.94 10.79L15.94 10.79L15.94 10.79Q16.16 10.97 16.21 11.28L16.21 11.28L16.21 11.28Q16.27 11.59 16.27 12.05L16.27 12.05ZM22.75 11.83L22.76 15.91L22.76 15.91Q22.76 16.14 22.78 16.35L22.78 16.35L22.78 16.35Q22.79 16.56 22.86 16.72L22.86 16.72L22.86 16.72Q22.93 16.88 23.07 16.98L23.07 16.98L23.07 16.98Q23.21 17.08 23.47 17.08L23.47 17.08L23.47 17.08Q23.82 17.08 24.09 16.98L24.09 16.98L24.09 16.98Q24.35 16.89 24.63 16.74L24.63 16.74L24.63 16.74Q24.74 16.68 24.83 16.68L24.83 16.68L24.83 16.68Q24.99 16.68 25.08 16.82L25.08 16.82L25.08 16.82Q25.18 16.95 25.18 17.12L25.18 17.12L25.18 17.12Q25.18 17.24 25.14 17.32L25.14 17.32L25.14 17.32Q24.94 17.82 24.63 18.22L24.63 18.22L24.63 18.22Q24.32 18.63 23.92 18.91L23.92 18.91L23.92 18.91Q23.51 19.19 23.02 19.34L23.02 19.34L23.02 19.34Q22.54 19.49 21.98 19.49L21.98 19.49L21.98 19.49Q21.22 19.49 20.67 19.29L20.67 19.29L20.67 19.29Q20.13 19.10 19.75 18.77L19.75 18.77L19.75 18.77Q19.37 18.45 19.15 18.02L19.15 18.02L19.15 18.02Q18.92 17.60 18.80 17.13L18.80 17.13L18.80 17.13Q18.68 16.66 18.65 16.18L18.65 16.18L18.65 16.18Q18.61 15.71 18.61 15.29L18.61 15.29L18.61 11.83L18.27 11.83L18.27 11.83Q18.02 11.83 17.88 11.68L17.88 11.68L17.88 11.68Q17.73 11.53 17.73 11.35L17.73 11.35L17.73 11.35Q17.73 11.14 17.92 11.00L17.92 11.00L17.92 11.00Q18.72 10.42 19.39 9.89L19.39 9.89L19.39 9.89Q20.05 9.35 20.53 8.93L20.53 8.93L20.53 8.93Q21.09 8.44 21.53 8.00L21.53 8.00L21.53 8.00Q21.71 7.83 21.90 7.74L21.90 7.74L21.90 7.74Q22.08 7.66 22.25 7.66L22.25 7.66L22.25 7.66Q22.46 7.66 22.61 7.80L22.61 7.80L22.61 7.80Q22.75 7.94 22.75 8.24L22.75 8.24L22.75 10.46L24.42 10.46L24.42 10.46Q24.50 10.46 24.61 10.47L24.61 10.47L24.61 10.47Q24.73 10.48 24.83 10.54L24.83 10.54L24.83 10.54Q24.93 10.60 25.00 10.74L25.00 10.74L25.00 10.74Q25.07 10.87 25.07 11.12L25.07 11.12L25.07 11.12Q25.07 11.38 25.01 11.53L25.01 11.53L25.01 11.53Q24.94 11.67 24.83 11.74L24.83 11.74L24.83 11.74Q24.73 11.81 24.62 11.82L24.62 11.82L24.62 11.82Q24.51 11.83 24.42 11.83L24.42 11.83L22.75 11.83ZM39.47 11.10L39.47 11.10L39.47 11.10Q39.59 11.03 39.77 10.89L39.77 10.89L39.77 10.89Q39.96 10.75 40.33 10.61L40.33 10.61L40.33 10.61Q40.70 10.47 41.31 10.36L41.31 10.36L41.31 10.36Q41.92 10.26 42.88 10.26L42.88 10.26L42.88 10.26Q43.59 10.26 44.13 10.43L44.13 10.43L44.13 10.43Q44.66 10.60 45.04 10.90L45.04 10.90L45.04 10.90Q45.42 11.19 45.66 11.59L45.66 11.59L45.66 11.59Q45.91 11.99 46.05 12.45L46.05 12.45L46.05 12.45Q46.20 12.91 46.25 13.41L46.25 13.41L46.25 13.41Q46.31 13.91 46.31 14.40L46.31 14.40L46.31 14.47L46.31 14.47Q46.30 15.29 46.30 15.73L46.30 15.73L46.30 15.73Q46.29 16.17 46.29 16.37L46.29 16.37L46.29 16.37Q46.29 16.58 46.29 16.61L46.29 16.61L46.29 16.61Q46.29 16.65 46.29 16.65L46.29 16.65L46.29 16.65Q46.29 16.94 46.37 17.10L46.37 17.10L46.37 17.10Q46.44 17.26 46.56 17.35L46.56 17.35L46.56 17.35Q46.67 17.43 46.80 17.46L46.80 17.46L46.80 17.46Q46.94 17.49 47.05 17.53L47.05 17.53L47.05 17.53Q47.16 17.57 47.24 17.63L47.24 17.63L47.24 17.63Q47.31 17.70 47.31 17.85L47.31 17.85L47.31 17.85Q47.31 18.24 47.12 18.52L47.12 18.52L47.12 18.52Q46.92 18.79 46.55 18.97L46.55 18.97L46.55 18.97Q46.17 19.15 45.62 19.24L45.62 19.24L45.62 19.24Q45.07 19.32 44.36 19.32L44.36 19.32L44.36 19.32Q43.67 19.32 43.13 19.24L43.13 19.24L43.13 19.24Q42.59 19.15 42.23 18.97L42.23 18.97L42.23 18.97Q41.86 18.79 41.67 18.52L41.67 18.52L41.67 18.52Q41.47 18.24 41.47 17.85L41.47 17.85L41.47 17.85Q41.47 17.70 41.52 17.63L41.52 17.63L41.52 17.63Q41.58 17.57 41.65 17.53L41.65 17.53L41.65 17.53Q41.73 17.50 41.82 17.47L41.82 17.47L41.82 17.47Q41.90 17.45 41.98 17.37L41.98 17.37L41.98 17.37Q42.05 17.29 42.11 17.14L42.11 17.14L42.11 17.14Q42.16 16.99 42.16 16.71L42.16 16.71L42.16 13.77L42.16 13.77Q42.16 13.36 42.11 13.03L42.11 13.03L42.11 13.03Q42.05 12.70 41.94 12.48L41.94 12.48L41.94 12.48Q41.82 12.25 41.63 12.13L41.63 12.13L41.63 12.13Q41.43 12.01 41.14 12.01L41.14 12.01L41.14 12.01Q40.69 12.01 40.49 12.29L40.49 12.29L40.49 12.29Q40.28 12.58 40.28 13.03L40.28 13.03L40.28 16.63L40.28 16.63Q40.28 16.93 40.34 17.09L40.34 17.09L40.34 17.09Q40.39 17.25 40.48 17.34L40.48 17.34L40.48 17.34Q40.56 17.42 40.66 17.46L40.66 17.46L40.66 17.46Q40.76 17.49 40.85 17.53L40.85 17.53L40.85 17.53Q40.93 17.57 40.99 17.63L40.99 17.63L40.99 17.63Q41.04 17.70 41.04 17.85L41.04 17.85L41.04 17.85Q41.04 18.24 40.89 18.52L40.89 18.52L40.89 18.52Q40.74 18.79 40.41 18.97L40.41 18.97L40.41 18.97Q40.09 19.15 39.58 19.24L39.58 19.24L39.58 19.24Q39.07 19.32 38.35 19.32L38.35 19.32L38.35 19.32Q37.66 19.32 37.12 19.24L37.12 19.24L37.12 19.24Q36.59 19.15 36.22 18.97L36.22 18.97L36.22 18.97Q35.85 18.79 35.66 18.52L35.66 18.52L35.66 18.52Q35.46 18.24 35.46 17.85L35.46 17.85L35.46 17.85Q35.46 17.70 35.52 17.63L35.52 17.63L35.52 17.63Q35.57 17.57 35.64 17.53L35.64 17.53L35.64 17.53Q35.72 17.50 35.81 17.47L35.81 17.47L35.81 17.47Q35.90 17.45 35.98 17.37L35.98 17.37L35.98 17.37Q36.05 17.29 36.10 17.14L36.10 17.14L36.10 17.14Q36.16 16.99 36.16 16.71L36.16 16.71L36.16 13.77L36.16 13.77Q36.16 12.94 35.95 12.48L35.95 12.48L35.95 12.48Q35.75 12.02 35.23 12.02L35.23 12.02L35.23 12.02Q35.03 12.02 34.84 12.10L34.84 12.10L34.84 12.10Q34.66 12.17 34.51 12.31L34.51 12.31L34.51 12.31Q34.37 12.46 34.29 12.65L34.29 12.65L34.29 12.65Q34.21 12.84 34.21 13.06L34.21 13.06L34.21 16.69L34.21 16.69Q34.21 16.97 34.27 17.12L34.27 17.12L34.27 17.12Q34.32 17.28 34.41 17.36L34.41 17.36L34.41 17.36Q34.50 17.44 34.61 17.47L34.61 17.47L34.61 17.47Q34.71 17.50 34.80 17.53L34.80 17.53L34.80 17.53Q34.89 17.57 34.95 17.63L34.95 17.63L34.95 17.63Q35.01 17.70 35.01 17.85L35.01 17.85L35.01 17.85Q35.01 18.63 34.23 18.97L34.23 18.97L34.23 18.97Q33.46 19.32 32.00 19.32L32.00 19.32L32.00 19.32Q31.29 19.32 30.74 19.24L30.74 19.24L30.74 19.24Q30.19 19.15 29.81 18.97L29.81 18.97L29.81 18.97Q29.43 18.79 29.23 18.52L29.23 18.52L29.23 18.52Q29.03 18.24 29.03 17.85L29.03 17.85L29.03 17.85Q29.03 17.70 29.10 17.63L29.10 17.63L29.10 17.63Q29.18 17.57 29.29 17.53L29.29 17.53L29.29 17.53Q29.39 17.50 29.52 17.47L29.52 17.47L29.52 17.47Q29.65 17.45 29.76 17.37L29.76 17.37L29.76 17.37Q29.87 17.29 29.95 17.14L29.95 17.14L29.95 17.14Q30.02 16.99 30.02 16.71L30.02 16.71L30.02 13.06L30.02 13.06Q30.02 12.79 29.95 12.64L29.95 12.64L29.95 12.64Q29.87 12.49 29.76 12.41L29.76 12.41L29.76 12.41Q29.65 12.33 29.52 12.30L29.52 12.30L29.52 12.30Q29.39 12.28 29.29 12.24L29.29 12.24L29.29 12.24Q29.18 12.21 29.10 12.14L29.10 12.14L29.10 12.14Q29.03 12.08 29.03 11.93L29.03 11.93L29.03 11.93Q29.03 11.54 29.22 11.26L29.22 11.26L29.22 11.26Q29.42 10.99 29.80 10.80L29.80 10.80L29.80 10.80Q30.18 10.62 30.73 10.54L30.73 10.54L30.73 10.54Q31.27 10.46 31.96 10.46L31.96 10.46L31.96 10.46Q32.28 10.46 32.53 10.49L32.53 10.49L32.53 10.49Q32.79 10.52 32.98 10.57L32.98 10.57L32.98 10.57Q33.17 10.62 33.32 10.69L33.32 10.69L33.32 10.69Q33.46 10.75 33.56 10.82L33.56 10.82L33.56 10.82Q33.80 10.99 33.90 11.18L33.90 11.18L33.90 11.18Q34.23 10.93 34.71 10.73L34.71 10.73L34.71 10.73Q35.11 10.55 35.69 10.40L35.69 10.40L35.69 10.40Q36.27 10.26 37.05 10.26L37.05 10.26L37.05 10.26Q37.86 10.26 38.48 10.49L38.48 10.49L38.48 10.49Q39.10 10.72 39.47 11.10ZM51.28 10.30L51.28 10.30L51.28 10.30Q51.13 11.12 51.02 11.72L51.02 11.72L51.02 11.72Q50.91 12.33 50.81 12.76L50.81 12.76L50.81 12.76Q50.71 13.20 50.60 13.49L50.60 13.49L50.60 13.49Q50.49 13.77 50.33 13.94L50.33 13.94L50.33 13.94Q50.18 14.11 49.95 14.17L49.95 14.17L49.95 14.17Q49.72 14.24 49.38 14.24L49.38 14.24L49.38 14.24Q49.08 14.24 48.87 14.17L48.87 14.17L48.87 14.17Q48.67 14.11 48.52 13.94L48.52 13.94L48.52 13.94Q48.38 13.77 48.28 13.49L48.28 13.49L48.28 13.49Q48.17 13.20 48.07 12.76L48.07 12.76L48.07 12.76Q47.97 12.32 47.84 11.71L47.84 11.71L47.84 11.71Q47.72 11.09 47.54 10.27L47.54 10.27L47.54 10.27Q47.45 9.87 47.45 9.52L47.45 9.52L47.45 9.52Q47.45 9.19 47.54 8.90L47.54 8.90L47.54 8.90Q47.64 8.61 47.87 8.40L47.87 8.40L47.87 8.40Q48.09 8.19 48.46 8.07L48.46 8.07L48.46 8.07Q48.83 7.95 49.38 7.95L49.38 7.95L49.38 7.95Q49.94 7.95 50.32 8.07L50.32 8.07L50.32 8.07Q50.70 8.20 50.93 8.41L50.93 8.41L50.93 8.41Q51.17 8.63 51.26 8.92L51.26 8.92L51.26 8.92Q51.36 9.22 51.36 9.57L51.36 9.57L51.36 9.57Q51.36 9.91 51.28 10.30ZM57.06 8.02L57.05 11.45L57.05 11.45Q57.20 11.28 57.46 11.07L57.46 11.07L57.46 11.07Q57.72 10.87 58.11 10.69L58.11 10.69L58.11 10.69Q58.49 10.51 59.00 10.38L59.00 10.38L59.00 10.38Q59.51 10.26 60.17 10.26L60.17 10.26L60.17 10.26Q60.94 10.26 61.48 10.46L61.48 10.46L61.48 10.46Q62.03 10.65 62.41 10.98L62.41 10.98L62.41 10.98Q62.79 11.31 63.02 11.73L63.02 11.73L63.02 11.73Q63.25 12.16 63.37 12.63L63.37 12.63L63.37 12.63Q63.49 13.10 63.53 13.57L63.53 13.57L63.53 13.57Q63.57 14.05 63.57 14.47L63.57 14.47L63.57 16.63L63.57 16.63Q63.57 16.93 63.65 17.09L63.65 17.09L63.65 17.09Q63.72 17.25 63.84 17.34L63.84 17.34L63.84 17.34Q63.96 17.42 64.09 17.46L64.09 17.46L64.09 17.46Q64.22 17.49 64.34 17.53L64.34 17.53L64.34 17.53Q64.46 17.57 64.53 17.63L64.53 17.63L64.53 17.63Q64.61 17.70 64.61 17.85L64.61 17.85L64.61 17.85Q64.61 18.63 63.80 18.97L63.80 18.97L63.80 18.97Q63 19.32 61.48 19.32L61.48 19.32L61.48 19.32Q60.74 19.32 60.17 19.24L60.17 19.24L60.17 19.24Q59.60 19.15 59.21 18.97L59.21 18.97L59.21 18.97Q58.82 18.79 58.62 18.52L58.62 18.52L58.62 18.52Q58.42 18.24 58.42 17.85L58.42 17.85L58.42 17.85Q58.42 17.70 58.50 17.63L58.50 17.63L58.50 17.63Q58.57 17.57 58.69 17.53L58.69 17.53L58.69 17.53Q58.80 17.49 58.93 17.46L58.93 17.46L58.93 17.46Q59.06 17.43 59.18 17.35L59.18 17.35L59.18 17.35Q59.29 17.27 59.37 17.11L59.37 17.11L59.37 17.11Q59.45 16.95 59.45 16.66L59.45 16.66L59.45 13.87L59.45 13.87Q59.45 13.43 59.38 13.08L59.38 13.08L59.38 13.08Q59.32 12.74 59.17 12.50L59.17 12.50L59.17 12.50Q59.02 12.26 58.77 12.14L58.77 12.14L58.77 12.14Q58.51 12.01 58.13 12.01L58.13 12.01L58.13 12.01Q57.93 12.01 57.76 12.07L57.76 12.07L57.76 12.07Q57.60 12.12 57.46 12.20L57.46 12.20L57.46 12.20Q57.32 12.28 57.21 12.37L57.21 12.37L57.21 12.37Q57.11 12.46 57.03 12.53L57.03 12.53L57.03 16.69L57.03 16.69Q57.03 16.97 57.11 17.12L57.11 17.12L57.11 17.12Q57.18 17.28 57.30 17.36L57.30 17.36L57.30 17.36Q57.41 17.44 57.54 17.47L57.54 17.47L57.54 17.47Q57.67 17.50 57.78 17.53L57.78 17.53L57.78 17.53Q57.89 17.57 57.97 17.63L57.97 17.63L57.97 17.63Q58.04 17.70 58.04 17.85L58.04 17.85L58.04 17.85Q58.04 18.63 57.24 18.97L57.24 18.97L57.24 18.97Q56.43 19.32 54.91 19.32L54.91 19.32L54.91 19.32Q53.44 19.32 52.65 18.97L52.65 18.97L52.65 18.97Q51.86 18.63 51.86 17.85L51.86 17.85L51.86 17.85Q51.86 17.70 51.93 17.63L51.93 17.63L51.93 17.63Q52.00 17.57 52.11 17.53L52.11 17.53L52.11 17.53Q52.23 17.50 52.35 17.47L52.35 17.47L52.35 17.47Q52.48 17.45 52.59 17.37L52.59 17.37L52.59 17.37Q52.71 17.29 52.78 17.14L52.78 17.14L52.78 17.14Q52.85 16.99 52.85 16.71L52.85 16.71L52.85 9.03L52.85 9.03Q52.85 8.75 52.78 8.60L52.78 8.60L52.78 8.60Q52.71 8.46 52.59 8.38L52.59 8.38L52.59 8.38Q52.48 8.30 52.35 8.27L52.35 8.27L52.35 8.27Q52.23 8.24 52.11 8.21L52.11 8.21L52.11 8.21Q52.00 8.18 51.93 8.11L51.93 8.11L51.93 8.11Q51.86 8.05 51.86 7.90L51.86 7.90L51.86 7.90Q51.86 7.12 52.65 6.77L52.65 6.77L52.65 6.77Q53.44 6.43 54.91 6.43L54.91 6.43L54.91 6.43Q55.64 6.43 56.07 6.50L56.07 6.50L56.07 6.50Q56.50 6.58 56.72 6.76L56.72 6.76L56.72 6.76Q56.94 6.94 57.00 7.25L57.00 7.25L57.00 7.25Q57.06 7.55 57.06 8.02L57.06 8.02ZM69.68 17.92L69.68 17.92L69.68 17.92Q69.90 17.92 70.04 17.85L70.04 17.85L70.04 17.85Q70.18 17.77 70.26 17.64L70.26 17.64L70.26 17.64Q70.33 17.51 70.36 17.31L70.36 17.31L70.36 17.31Q70.38 17.12 70.38 16.87L70.38 16.87L70.38 16.87Q70.38 16.66 70.38 16.33L70.38 16.33L70.38 16.33Q70.37 16.00 70.36 15.69L70.36 15.69L70.36 15.69Q70.35 15.32 70.34 14.92L70.34 14.92L70.34 14.92Q70.25 14.91 70.16 14.90L70.16 14.90L70.16 14.90Q70.08 14.89 69.99 14.89L69.99 14.89L69.99 14.89Q69.64 14.89 69.41 15.03L69.41 15.03L69.41 15.03Q69.17 15.17 69.03 15.42L69.03 15.42L69.03 15.42Q68.89 15.67 68.83 16.01L68.83 16.01L68.83 16.01Q68.77 16.34 68.77 16.74L68.77 16.74L68.77 16.74Q68.77 16.98 68.80 17.20L68.80 17.20L68.80 17.20Q68.82 17.41 68.92 17.57L68.92 17.57L68.92 17.57Q69.02 17.73 69.20 17.82L69.20 17.82L69.20 17.82Q69.38 17.92 69.68 17.92ZM72.97 19.32L72.97 19.32L72.97 19.32Q72.63 19.32 72.28 19.28L72.28 19.28L72.28 19.28Q71.93 19.24 71.62 19.13L71.62 19.13L71.62 19.13Q71.31 19.01 71.05 18.79L71.05 18.79L71.05 18.79Q70.79 18.57 70.61 18.21L70.61 18.21L70.61 18.21Q70.47 18.53 70.17 18.77L70.17 18.77L70.17 18.77Q69.86 19.01 69.48 19.17L69.48 19.17L69.48 19.17Q69.09 19.33 68.66 19.41L68.66 19.41L68.66 19.41Q68.24 19.49 67.85 19.49L67.85 19.49L67.85 19.49Q67.16 19.49 66.64 19.33L66.64 19.33L66.64 19.33Q66.12 19.16 65.76 18.86L65.76 18.86L65.76 18.86Q65.41 18.55 65.23 18.13L65.23 18.13L65.23 18.13Q65.05 17.71 65.05 17.18L65.05 17.18L65.05 17.18Q65.05 16.56 65.26 16.00L65.26 16.00L65.26 16.00Q65.47 15.44 65.97 15.03L65.97 15.03L65.97 15.03Q66.47 14.61 67.31 14.37L67.31 14.37L67.31 14.37Q68.15 14.12 69.42 14.12L69.42 14.12L70.36 14.12L70.36 14.12Q70.36 13.36 70.30 12.87L70.30 12.87L70.30 12.87Q70.25 12.37 70.14 12.07L70.14 12.07L70.14 12.07Q70.03 11.78 69.87 11.66L69.87 11.66L69.87 11.66Q69.71 11.55 69.47 11.55L69.47 11.55L69.47 11.55Q69.21 11.55 69.04 11.70L69.04 11.70L69.04 11.70Q68.87 11.86 68.76 12.16L68.76 12.16L68.76 12.16Q68.65 12.46 68.61 12.88L68.61 12.88L68.61 12.88Q68.56 13.30 68.56 13.83L68.56 13.83L68.56 13.83Q68.27 13.83 67.95 13.82L67.95 13.82L67.95 13.82Q67.62 13.81 67.30 13.77L67.30 13.77L67.30 13.77Q66.99 13.73 66.70 13.64L66.70 13.64L66.70 13.64Q66.42 13.56 66.20 13.41L66.20 13.41L66.20 13.41Q65.98 13.26 65.85 13.04L65.85 13.04L65.85 13.04Q65.72 12.81 65.72 12.49L65.72 12.49L65.72 12.49Q65.72 12.04 65.96 11.63L65.96 11.63L65.96 11.63Q66.19 11.23 66.68 10.93L66.68 10.93L66.68 10.93Q67.17 10.62 67.92 10.44L67.92 10.44L67.92 10.44Q68.67 10.26 69.71 10.26L69.71 10.26L69.71 10.26Q70.92 10.26 71.80 10.51L71.80 10.51L71.80 10.51Q72.67 10.75 73.24 11.25L73.24 11.25L73.24 11.25Q73.80 11.74 74.07 12.49L74.07 12.49L74.07 12.49Q74.34 13.23 74.34 14.24L74.34 14.24L74.34 16.66L74.34 16.66Q74.34 16.95 74.42 17.12L74.42 17.12L74.42 17.12Q74.50 17.28 74.61 17.37L74.61 17.37L74.61 17.37Q74.72 17.45 74.86 17.49L74.86 17.49L74.86 17.49Q75.00 17.52 75.11 17.56L75.11 17.56L75.11 17.56Q75.22 17.60 75.30 17.66L75.30 17.66L75.30 17.66Q75.38 17.73 75.38 17.88L75.38 17.88L75.38 17.88Q75.38 18.56 74.77 18.94L74.77 18.94L74.77 18.94Q74.16 19.32 72.97 19.32Z"></path></g><!----><!----></svg>