<svg width="89" height="176" viewBox="0 0 89 176" fill="none" xmlns="http://www.w3.org/2000/svg">
<circle cx="6.21561" cy="6.21561" r="6.21561" fill="#84B4FC"/>
<circle cx="32.3866" cy="6.21561" r="6.21561" fill="#84B4FC"/>
<circle cx="58.5577" cy="6.21561" r="6.21561" fill="#84B4FC"/>
<circle cx="84.7286" cy="6.21561" r="6.21561" fill="#84B4FC"/>
<circle cx="6.21561" cy="38.9294" r="6.21561" fill="#84B4FC"/>
<circle cx="32.3866" cy="38.9294" r="6.21561" fill="#84B4FC"/>
<circle cx="58.5577" cy="38.9294" r="6.21561" fill="#84B4FC"/>
<circle cx="84.7286" cy="38.9294" r="6.21561" fill="#84B4FC"/>
<circle cx="6.21561" cy="71.6431" r="6.21561" fill="#84B4FC"/>
<circle cx="32.3866" cy="71.6431" r="6.21561" fill="#84B4FC"/>
<circle cx="58.5577" cy="71.6431" r="6.21561" fill="#84B4FC"/>
<circle cx="84.7286" cy="71.6431" r="6.21561" fill="#84B4FC"/>
<circle cx="6.21561" cy="104.357" r="6.21561" fill="#84B4FC"/>
<circle cx="32.3866" cy="104.357" r="6.21561" fill="#84B4FC"/>
<circle cx="58.5577" cy="104.357" r="6.21561" fill="#84B4FC"/>
<circle cx="84.7286" cy="104.357" r="6.21561" fill="#84B4FC"/>
<circle cx="6.21561" cy="137.071" r="6.21561" fill="#84B4FC"/>
<circle cx="32.3866" cy="137.071" r="6.21561" fill="#84B4FC"/>
<circle cx="58.5577" cy="137.071" r="6.21561" fill="#84B4FC"/>
<circle cx="84.7286" cy="137.071" r="6.21561" fill="#84B4FC"/>
<circle cx="6.21561" cy="169.784" r="6.21561" fill="#84B4FC"/>
<circle cx="32.3866" cy="169.784" r="6.21561" fill="#84B4FC"/>
<circle cx="58.5577" cy="169.784" r="6.21561" fill="#84B4FC"/>
<circle cx="84.7286" cy="169.784" r="6.21561" fill="#84B4FC"/>
</svg>
