<svg width="38" height="29" viewBox="0 0 38 29" fill="none" xmlns="http://www.w3.org/2000/svg">
<path opacity="0.4" d="M36.1069 5.14537C35.3387 4.66144 34.3945 4.61863 33.5897 5.02811L30.8726 6.39985C29.868 6.90611 29.2446 7.9298 29.2446 9.06889V19.7636C29.2446 20.9027 29.868 21.9246 30.8726 22.4345L33.5878 23.8044C33.9563 23.9943 34.3505 24.0855 34.7447 24.0855C35.2177 24.0855 35.687 23.9515 36.1069 23.689C36.875 23.207 37.3334 22.3713 37.3334 21.4555V7.38073C37.3334 6.46499 36.875 5.62929 36.1069 5.14537Z" fill="#A4ADBA"/>
<path d="M18.826 28.167H8.2072C3.76682 28.167 0.666626 25.1052 0.666626 20.722V8.112C0.666626 3.72689 3.76682 0.666992 8.2072 0.666992H18.826C23.2664 0.666992 26.3665 3.72689 26.3665 8.112V20.722C26.3665 25.1052 23.2664 28.167 18.826 28.167Z" fill="#A4ADBA"/>
</svg>
